# xmcd
#
# Track frame offsets:
# 150
# 17221
# 38937
# 54474
# 73265
# 97234
# 117902
# 135731
# 152169
# 166086
#
# Disc length: 2518 seconds
#
# Revision: 0
# Processed by: cddbd v1.5.1PL0 Copyright (c) Steve Scherf et al.
# Submitted via: Audion 3.0.2 (http://www.panic.com/audion/)
#
DISCID=8b09d40a
DTITLE=Van Morrison - Too Late To Stop Now
DYEAR=1900
DGENRE=
TTITLE0=Ain't Nothin You Can Do
TTITLE1=Domino
TTITLE2=Help Me
TTITLE3=I Believe To My Soul
TTITLE4=I Just Want To Make Love to You
TTITLE5=Into The Mystic
TTITLE6=I've been Working
TTITLE7=These Dreams of You
TTITLE8=Warm Love
TTITLE9=Wild Children
EXTD=
EXTT0=
EXTT1=
EXTT2=
EXTT3=
EXTT4=
EXTT5=
EXTT6=
EXTT7=
EXTT8=
EXTT9=
PLAYORDER=
